<?xml version="1.0" encoding="UTF-8"?>
<!DOCTYPE score-partwise PUBLIC "-//Recordare//DTD MusicXML 4.0 Partwise//EN" "http://www.musicxml.org/dtds/partwise.dtd">
<score-partwise version="4.0">
  <work>
    <work-title>Untitled score</work-title>
    </work>
  <identification>
    <creator type="composer">Composer / arranger</creator>
    <encoding>
      <software>MuseScore 4.4.3</software>
      <encoding-date>2024-12-09</encoding-date>
      <supports element="accidental" type="yes"/>
      <supports element="beam" type="yes"/>
      <supports element="print" attribute="new-page" type="yes" value="yes"/>
      <supports element="print" attribute="new-system" type="yes" value="yes"/>
      <supports element="stem" type="yes"/>
      </encoding>
    </identification>
  <defaults>
    <scaling>
      <millimeters>6.99912</millimeters>
      <tenths>40</tenths>
      </scaling>
    <page-layout>
      <page-height>1696.93</page-height>
      <page-width>1200.48</page-width>
      <page-margins type="even">
        <left-margin>85.725</left-margin>
        <right-margin>85.725</right-margin>
        <top-margin>85.725</top-margin>
        <bottom-margin>85.725</bottom-margin>
        </page-margins>
      <page-margins type="odd">
        <left-margin>85.725</left-margin>
        <right-margin>85.725</right-margin>
        <top-margin>85.725</top-margin>
        <bottom-margin>85.725</bottom-margin>
        </page-margins>
      </page-layout>
    <appearance>
      <line-width type="light barline">1.8</line-width>
      <line-width type="heavy barline">5.5</line-width>
      <line-width type="beam">5</line-width>
      <line-width type="bracket">4.5</line-width>
      <line-width type="dashes">1</line-width>
      <line-width type="enclosure">1</line-width>
      <line-width type="ending">1.1</line-width>
      <line-width type="extend">1</line-width>
      <line-width type="leger">1.6</line-width>
      <line-width type="pedal">1.1</line-width>
      <line-width type="octave shift">1.1</line-width>
      <line-width type="slur middle">2.1</line-width>
      <line-width type="slur tip">0.5</line-width>
      <line-width type="staff">1.1</line-width>
      <line-width type="stem">1</line-width>
      <line-width type="tie middle">2.1</line-width>
      <line-width type="tie tip">0.5</line-width>
      <line-width type="tuplet bracket">1</line-width>
      <line-width type="wedge">1.2</line-width>
      <note-size type="cue">70</note-size>
      <note-size type="grace">70</note-size>
      <note-size type="grace-cue">49</note-size>
      </appearance>
    <music-font font-family="Leland"/>
    <word-font font-family="Edwin" font-size="10"/>
    <lyric-font font-family="Edwin" font-size="10"/>
    </defaults>
  <credit page="1">
    <credit-type>title</credit-type>
    <credit-words default-x="600.241173" default-y="1611.208292" justify="center" valign="top" font-size="22">Exemplum 11</credit-words>
    </credit>
  <credit page="1">
    <credit-type>subtitle</credit-type>
    <credit-words default-x="600.241173" default-y="1554.058251" justify="center" valign="top" font-size="14">p. 29</credit-words>
    </credit>
  <credit page="1">
    <credit-type>composer</credit-type>
    <credit-words default-x="1114.75731" default-y="1511.208419" justify="right" valign="bottom">Johannes Tictoris</credit-words>
    </credit>
  <part-list>
    <score-part id="P1">
      <part-name>Piano</part-name>
      <part-abbreviation>Pno.</part-abbreviation>
      <score-instrument id="P1-I1">
        <instrument-name>Piano</instrument-name>
        <instrument-sound>keyboard.piano</instrument-sound>
        </score-instrument>
      <midi-device id="P1-I1" port="1"></midi-device>
      <midi-instrument id="P1-I1">
        <midi-channel>1</midi-channel>
        <midi-program>1</midi-program>
        <volume>78.7402</volume>
        <pan>0</pan>
        </midi-instrument>
      </score-part>
    </part-list>
  <part id="P1">
    <measure number="1" width="122.71">
      <print>
        <system-layout>
          <system-margins>
            <left-margin>50</left-margin>
            <right-margin>-0</right-margin>
            </system-margins>
          <top-system-distance>170</top-system-distance>
          </system-layout>
        </print>
      <attributes>
        <divisions>1</divisions>
        <key>
          <fifths>0</fifths>
          </key>
        <time print-object="no">
          <beats>4</beats>
          <beat-type>2</beat-type>
          </time>
        <clef>
          <sign>C</sign>
          <line>4</line>
          </clef>
        </attributes>
      <note default-x="40.57" default-y="-25">
        <pitch>
          <step>G</step>
          <octave>3</octave>
          </pitch>
        <duration>8</duration>
        <voice>1</voice>
        <type>breve</type>
        <notations>
          <slur type="start" number="1"/>
          </notations>
        <lyric number="2" default-x="2.23" default-y="-63.71" relative-y="-30">
          <syllabic>single</syllabic>
          <text>sol</text>
          </lyric>
        </note>
      <barline location="right">
        <bar-style>none</bar-style>
        </barline>
      </measure>
    <measure number="2" width="94.63">
      <note default-x="12.5" default-y="-30">
        <pitch>
          <step>F</step>
          <octave>3</octave>
          </pitch>
        <duration>8</duration>
        <voice>1</voice>
        <type>breve</type>
        <lyric number="2" default-x="2.23" default-y="-63.71" relative-y="-30">
          <syllabic>single</syllabic>
          <text>fa</text>
          </lyric>
        </note>
      <barline location="right">
        <bar-style>none</bar-style>
        </barline>
      </measure>
    <measure number="3" width="94.63">
      <note default-x="12.5" default-y="-40">
        <pitch>
          <step>D</step>
          <octave>3</octave>
          </pitch>
        <duration>8</duration>
        <tie type="start"/>
        <voice>1</voice>
        <type>breve</type>
        <stem>up</stem>
        <notations>
          <tied type="start"/>
          <slur type="stop" number="1"/>
          </notations>
        <lyric number="2" default-x="2.23" default-y="-63.71" relative-y="-30">
          <syllabic>single</syllabic>
          <text>re</text>
          </lyric>
        </note>
      <barline location="right">
        <bar-style>none</bar-style>
        </barline>
      </measure>
    <measure number="4" width="94.63">
      <note default-x="12.5" default-y="-40">
        <pitch>
          <step>D</step>
          <octave>3</octave>
          </pitch>
        <duration>8</duration>
        <tie type="stop"/>
        <voice>1</voice>
        <type>breve</type>
        <notations>
          <tied type="stop"/>
          </notations>
        </note>
      <barline location="right">
        <bar-style>none</bar-style>
        </barline>
      </measure>
    <measure number="5" width="94.63">
      <note default-x="12.5" default-y="-25">
        <pitch>
          <step>G</step>
          <octave>3</octave>
          </pitch>
        <duration>8</duration>
        <voice>1</voice>
        <type>breve</type>
        <lyric number="2" default-x="2.23" default-y="-63.71" relative-y="-30">
          <syllabic>single</syllabic>
          <text>re</text>
          </lyric>
        </note>
      <barline location="right">
        <bar-style>none</bar-style>
        </barline>
      </measure>
    <measure number="6" width="99.25">
      <note default-x="17.12" default-y="-15">
        <pitch>
          <step>B</step>
          <alter>-1</alter>
          <octave>3</octave>
          </pitch>
        <duration>8</duration>
        <voice>1</voice>
        <type>breve</type>
        <accidental>flat</accidental>
        <lyric number="2" default-x="10.76" default-y="-63.71" relative-y="-30">
          <syllabic>single</syllabic>
          <text>fa</text>
          </lyric>
        </note>
      <barline location="right">
        <bar-style>none</bar-style>
        </barline>
      </measure>
    <measure number="7" width="94.63">
      <note default-x="12.5" default-y="-25">
        <pitch>
          <step>G</step>
          <octave>3</octave>
          </pitch>
        <duration>8</duration>
        <voice>1</voice>
        <type>breve</type>
        <lyric number="2" default-x="2.23" default-y="-63.71" relative-y="-30">
          <syllabic>single</syllabic>
          <text>sol</text>
          </lyric>
        </note>
      <barline location="right">
        <bar-style>none</bar-style>
        </barline>
      </measure>
    <measure number="8" width="94.63">
      <note default-x="12.5" default-y="-35">
        <pitch>
          <step>E</step>
          <octave>3</octave>
          </pitch>
        <duration>8</duration>
        <voice>1</voice>
        <type>breve</type>
        <notations>
          <slur type="start" number="1"/>
          </notations>
        <lyric number="2" default-x="2.23" default-y="-63.71" relative-y="-30">
          <syllabic>single</syllabic>
          <text>mi</text>
          </lyric>
        </note>
      <barline location="right">
        <bar-style>none</bar-style>
        </barline>
      </measure>
    <measure number="9" width="94.63">
      <note default-x="12.5" default-y="-30">
        <pitch>
          <step>F</step>
          <octave>3</octave>
          </pitch>
        <duration>8</duration>
        <voice>1</voice>
        <type>breve</type>
        <notations>
          <slur type="stop" number="1"/>
          </notations>
        <lyric number="2" default-x="2.23" default-y="-63.71" relative-y="-30">
          <syllabic>single</syllabic>
          <text>fa</text>
          </lyric>
        </note>
      <barline location="right">
        <bar-style>none</bar-style>
        </barline>
      </measure>
    <measure number="10" width="94.63">
      <note default-x="12.5" default-y="-25">
        <pitch>
          <step>G</step>
          <octave>3</octave>
          </pitch>
        <duration>8</duration>
        <voice>1</voice>
        <type>breve</type>
        <lyric number="2" default-x="2.23" default-y="-63.71" relative-y="-30">
          <syllabic>single</syllabic>
          <text>ut</text>
          </lyric>
        </note>
      <barline location="right">
        <bar-style>none</bar-style>
        </barline>
      </measure>
    <measure number="11" width="130.23">
      <print new-system="yes">
        <system-layout>
          <system-margins>
            <left-margin>0</left-margin>
            <right-margin>-0</right-margin>
            </system-margins>
          <system-distance>209.6</system-distance>
          </system-layout>
        </print>
      <note default-x="53.31" default-y="-15">
        <pitch>
          <step>B</step>
          <octave>3</octave>
          </pitch>
        <duration>8</duration>
        <voice>1</voice>
        <type>breve</type>
        <notations>
          <slur type="start" number="1"/>
          </notations>
        <lyric number="2" default-x="10.76" default-y="-63.71" relative-y="-30">
          <syllabic>single</syllabic>
          <text>re</text>
          </lyric>
        </note>
      <barline location="right">
        <bar-style>none</bar-style>
        </barline>
      </measure>
    <measure number="12" width="89.42">
      <note default-x="12.5" default-y="-5">
        <pitch>
          <step>D</step>
          <octave>4</octave>
          </pitch>
        <duration>8</duration>
        <voice>1</voice>
        <type>breve</type>
        <notations>
          <slur type="stop" number="1"/>
          </notations>
        <lyric number="2" default-x="10.76" default-y="-63.71" relative-y="-30">
          <syllabic>single</syllabic>
          <text>mi</text>
          </lyric>
        </note>
      <barline location="right">
        <bar-style>none</bar-style>
        </barline>
      </measure>
    <measure number="13" width="89.42">
      <note default-x="12.5" default-y="-25">
        <pitch>
          <step>G</step>
          <octave>3</octave>
          </pitch>
        <duration>8</duration>
        <voice>1</voice>
        <type>breve</type>
        <lyric number="2" default-x="2.23" default-y="-63.71" relative-y="-30">
          <syllabic>single</syllabic>
          <text>sol</text>
          </lyric>
        </note>
      <barline location="right">
        <bar-style>none</bar-style>
        </barline>
      </measure>
    <measure number="14" width="89.42">
      <note default-x="12.5" default-y="-30">
        <pitch>
          <step>F</step>
          <octave>3</octave>
          </pitch>
        <duration>8</duration>
        <voice>1</voice>
        <type>breve</type>
        <notations>
          <slur type="start" number="1"/>
          </notations>
        <lyric number="2" default-x="2.23" default-y="-63.71" relative-y="-30">
          <syllabic>single</syllabic>
          <text>fa</text>
          </lyric>
        </note>
      <barline location="right">
        <bar-style>none</bar-style>
        </barline>
      </measure>
    <measure number="15" width="89.42">
      <note default-x="12.5" default-y="-25">
        <pitch>
          <step>G</step>
          <octave>3</octave>
          </pitch>
        <duration>8</duration>
        <voice>1</voice>
        <type>breve</type>
        <lyric number="2" default-x="2.23" default-y="-63.71" relative-y="-30">
          <syllabic>single</syllabic>
          <text>sol</text>
          </lyric>
        </note>
      <barline location="right">
        <bar-style>none</bar-style>
        </barline>
      </measure>
    <measure number="16" width="89.42">
      <note default-x="12.5" default-y="-40">
        <pitch>
          <step>D</step>
          <octave>3</octave>
          </pitch>
        <duration>8</duration>
        <tie type="start"/>
        <voice>1</voice>
        <type>breve</type>
        <stem>up</stem>
        <notations>
          <tied type="start"/>
          <slur type="stop" number="1"/>
          </notations>
        <lyric number="2" default-x="2.23" default-y="-63.71" relative-y="-30">
          <syllabic>single</syllabic>
          <text>re</text>
          </lyric>
        </note>
      <barline location="right">
        <bar-style>none</bar-style>
        </barline>
      </measure>
    <measure number="17" width="89.42">
      <note default-x="12.5" default-y="-40">
        <pitch>
          <step>D</step>
          <octave>3</octave>
          </pitch>
        <duration>8</duration>
        <tie type="stop"/>
        <voice>1</voice>
        <type>breve</type>
        <notations>
          <tied type="stop"/>
          </notations>
        </note>
      <barline location="right">
        <bar-style>none</bar-style>
        </barline>
      </measure>
    <measure number="18" width="89.42">
      <note default-x="12.5" default-y="-5">
        <pitch>
          <step>D</step>
          <octave>4</octave>
          </pitch>
        <duration>8</duration>
        <voice>1</voice>
        <type>breve</type>
        <notations>
          <slur type="start" number="1"/>
          </notations>
        <lyric number="2" default-x="10.76" default-y="-63.71" relative-y="-30">
          <syllabic>single</syllabic>
          <text>sol</text>
          </lyric>
        </note>
      <barline location="right">
        <bar-style>none</bar-style>
        </barline>
      </measure>
    <measure number="19" width="94.04">
      <note default-x="17.12" default-y="-15">
        <pitch>
          <step>B</step>
          <alter>-1</alter>
          <octave>3</octave>
          </pitch>
        <duration>8</duration>
        <tie type="start"/>
        <voice>1</voice>
        <type>breve</type>
        <accidental>flat</accidental>
        <stem>down</stem>
        <notations>
          <tied type="start"/>
          <slur type="stop" number="1"/>
          </notations>
        <lyric number="2" default-x="10.76" default-y="-63.71" relative-y="-30">
          <syllabic>single</syllabic>
          <text>fa</text>
          </lyric>
        </note>
      <barline location="right">
        <bar-style>none</bar-style>
        </barline>
      </measure>
    <measure number="20" width="89.42">
      <note default-x="12.5" default-y="-15">
        <pitch>
          <step>B</step>
          <alter>-1</alter>
          <octave>3</octave>
          </pitch>
        <duration>8</duration>
        <tie type="stop"/>
        <voice>1</voice>
        <type>breve</type>
        <notations>
          <tied type="stop"/>
          </notations>
        </note>
      <barline location="right">
        <bar-style>none</bar-style>
        </barline>
      </measure>
    <measure number="21" width="89.42">
      <note default-x="12.5" default-y="-25">
        <pitch>
          <step>G</step>
          <octave>3</octave>
          </pitch>
        <duration>8</duration>
        <voice>1</voice>
        <type>breve</type>
        <lyric number="2" default-x="2.23" default-y="-63.71" relative-y="-30">
          <syllabic>single</syllabic>
          <text>ut</text>
          </lyric>
        </note>
      <barline location="right">
        <bar-style>none</bar-style>
        </barline>
      </measure>
    <measure number="22" width="183.63">
      <print new-system="yes">
        <system-layout>
          <system-margins>
            <left-margin>0</left-margin>
            <right-margin>-0</right-margin>
            </system-margins>
          <system-distance>209.6</system-distance>
          </system-layout>
        </print>
      <note default-x="56.91" default-y="-15">
        <pitch>
          <step>B</step>
          <octave>3</octave>
          </pitch>
        <duration>8</duration>
        <voice>1</voice>
        <type>breve</type>
        <accidental cautionary="yes" parentheses="no">natural</accidental>
        <notations>
          <slur type="start" number="1"/>
          </notations>
        <lyric number="2" default-x="10.76" default-y="-63.71" relative-y="-30">
          <syllabic>single</syllabic>
          <text>mi</text>
          </lyric>
        </note>
      <barline location="right">
        <bar-style>none</bar-style>
        </barline>
      </measure>
    <measure number="23" width="139.21">
      <note default-x="12.5" default-y="-10">
        <pitch>
          <step>C</step>
          <octave>4</octave>
          </pitch>
        <duration>8</duration>
        <voice>1</voice>
        <type>breve</type>
        <lyric number="2" default-x="10.76" default-y="-63.71" relative-y="-30">
          <syllabic>single</syllabic>
          <text>fa</text>
          </lyric>
        </note>
      <barline location="right">
        <bar-style>none</bar-style>
        </barline>
      </measure>
    <measure number="24" width="139.21">
      <note default-x="12.5" default-y="-5">
        <pitch>
          <step>D</step>
          <octave>4</octave>
          </pitch>
        <duration>8</duration>
        <voice>1</voice>
        <type>breve</type>
        <notations>
          <slur type="stop" number="1"/>
          </notations>
        <lyric number="2" default-x="10.76" default-y="-63.71" relative-y="-30">
          <syllabic>single</syllabic>
          <text>sol</text>
          </lyric>
        </note>
      <barline location="right">
        <bar-style>none</bar-style>
        </barline>
      </measure>
    <measure number="25" width="139.21">
      <note default-x="12.5" default-y="-25">
        <pitch>
          <step>G</step>
          <octave>3</octave>
          </pitch>
        <duration>8</duration>
        <voice>1</voice>
        <type>breve</type>
        <lyric number="2" default-x="2.23" default-y="-63.71" relative-y="-30">
          <syllabic>single</syllabic>
          <text>re</text>
          </lyric>
        </note>
      <barline location="right">
        <bar-style>none</bar-style>
        </barline>
      </measure>
    <measure number="26" width="143.83">
      <note default-x="17.12" default-y="-15">
        <pitch>
          <step>B</step>
          <alter>-1</alter>
          <octave>3</octave>
          </pitch>
        <duration>8</duration>
        <voice>1</voice>
        <type>breve</type>
        <accidental>flat</accidental>
        <notations>
          <slur type="start" number="1"/>
          </notations>
        <lyric number="2" default-x="10.76" default-y="-63.71" relative-y="-30">
          <syllabic>single</syllabic>
          <text>fa</text>
          </lyric>
        </note>
      <barline location="right">
        <bar-style>none</bar-style>
        </barline>
      </measure>
    <measure number="27" width="139.21">
      <note default-x="12.5" default-y="-20">
        <pitch>
          <step>A</step>
          <octave>3</octave>
          </pitch>
        <duration>8</duration>
        <voice>1</voice>
        <type>breve</type>
        <lyric number="2" default-x="10.76" default-y="-63.71" relative-y="-30">
          <syllabic>single</syllabic>
          <text>mi</text>
          </lyric>
        </note>
      <barline location="right">
        <bar-style>none</bar-style>
        </barline>
      </measure>
    <measure number="28" width="144.71">
      <note default-x="12.5" default-y="-25">
        <pitch>
          <step>G</step>
          <octave>3</octave>
          </pitch>
        <duration>8</duration>
        <voice>1</voice>
        <type>breve</type>
        <notations>
          <slur type="stop" number="1"/>
          </notations>
        <lyric number="2" default-x="2.23" default-y="-63.71" relative-y="-30">
          <syllabic>single</syllabic>
          <text>re</text>
          </lyric>
        </note>
      <barline location="right">
        <bar-style>light-light</bar-style>
        </barline>
      </measure>
    </part>
  </score-partwise>
